<svg width="13" height="36" viewBox="0 0 13 36" fill="none" xmlns="http://www.w3.org/2000/svg">
<path d="M0.579234 36C0.520568 36 0.491234 35.912 0.491234 35.736C0.491234 35.56 0.520568 35.472 0.579234 35.472C1.48857 35.472 2.1339 35.3987 2.51523 35.252C2.9259 35.1053 3.20457 34.8267 3.35123 34.416C3.4979 34.0053 3.57123 33.3453 3.57123 32.436V12.064C3.57123 11.2133 3.48323 10.5827 3.30723 10.172C3.16057 9.732 2.8819 9.43866 2.47123 9.292C2.06057 9.116 1.4299 9.028 0.579234 9.028C0.520568 9.028 0.476568 8.94 0.447235 8.764C0.447235 8.588 0.491234 8.5 0.579234 8.5L2.77923 8.544C4.0699 8.60267 5.11123 8.632 5.90323 8.632C6.78323 8.632 7.8979 8.60267 9.24724 8.544L11.4032 8.5C11.4619 8.5 11.4912 8.588 11.4912 8.764C11.4912 8.94 11.4619 9.028 11.4032 9.028C10.5232 9.028 9.8779 9.116 9.46724 9.292C9.05657 9.468 8.7779 9.76133 8.63123 10.172C8.5139 10.5827 8.44057 11.2427 8.41123 12.152V32.436C8.41123 33.316 8.48457 33.9613 8.63123 34.372C8.80723 34.7827 9.10057 35.076 9.51123 35.252C9.9219 35.3987 10.5526 35.472 11.4032 35.472C11.4619 35.472 11.4912 35.56 11.4912 35.736C11.4912 35.912 11.4619 36 11.4032 36C10.4939 36 9.76057 35.9853 9.20323 35.956L5.99123 35.912L2.86723 35.956C2.3099 35.9853 1.54723 36 0.579234 36ZM3.13123 6.168C3.0139 6.168 2.9259 6.10933 2.86723 5.992C2.80857 5.84533 2.82323 5.74267 2.91123 5.684C3.64457 5.09733 4.61257 4.17333 5.81523 2.912C7.0179 1.70933 7.61923 1.108 7.61923 1.108C7.7659 0.961332 8.2939 1.02 9.20323 1.284C10.1419 1.51867 10.9779 1.812 11.7112 2.164C12.4739 2.48667 12.6939 2.67733 12.3712 2.736C9.23257 3.55733 6.1819 4.68667 3.21923 6.124L3.13123 6.168Z" fill="white"/>
</svg>
